# xmcd
#
# Track frame offsets:
#	150
#	12865
#	25985
#	40365
#	53875
#	72425
#	84790
#	101775
#	115895
#	127905
#	144375
#	158700
#
# Disc length: 2501 seconds
#
# Revision: 0
# Processed by: cddbd v1.5PL3 Copyright (c) Steve Scherf et al.
# Submitted via: dBpowerAMP V4.0
#
DISCID=9809c30c
DTITLE=Adam Harvey - Cowboy Dreams
DYEAR=1900
DGENRE=Country
TTITLE0=Love Bang
TTITLE1=Call It Love
TTITLE2=When Lonely Met Love
TTITLE3=Hush
TTITLE4=She Don't Know It Yet
TTITLE5=Cowboys On A Day
TTITLE6=Nobody Knows
TTITLE7=Louisianna Rendezvous
TTITLE8=A Little Unfair
TTITLE9=A Little More To It Than That
TTITLE10=Acting A Little Crazy
TTITLE11=Little Cowboy Dreams
EXTD=
EXTT0=
EXTT1=
EXTT2=
EXTT3=
EXTT4=
EXTT5=
EXTT6=
EXTT7=
EXTT8=
EXTT9=
EXTT10=
EXTT11=
PLAYORDER=
